<mxfile host="app.diagrams.net" modified="2023-03-31T18:14:25.377Z" agent="Mozilla/5.0 (Macintosh; Intel Mac OS X 10_15_7) AppleWebKit/537.36 (KHTML, like Gecko) Chrome/111.0.0.0 Safari/537.36" version="21.1.2" etag="XIjvkJxoaMln1h6_wP6F" type="github">
  <diagram name="Page-1" id="U5QcwHi8TAl5WZpFD0M_">
    <mxGraphModel>
      <root>
        <mxCell id="0" />
        <mxCell id="1" parent="0" />
      </root>
    </mxGraphModel>
  </diagram>
</mxfile>
